<?xml version="1.0" encoding="UTF-8" standalone="no"?>
<!DOCTYPE svg PUBLIC "-//W3C//DTD SVG 20001102//EN" "http://www.w3.org/TR/2000/CR-SVG-20001102/DTD/svg-20001102.dtd">
<svg width="400" height="700" viewBox="0 0 400 700"
     xmlns="http://www.w3.org/2000/svg"
     xmlns:xlink="http://www.w3.org/1999/xlink"
	 style="background:#f8f8f8"
>

  <title>Arrowhead</title>
  <style>
    .merek { cursor: pointer; }
  </style>
<defs>
<pattern id="screwPattern" patternUnits="userSpaceOnUse" width="5" height="20">
    <line x1="0" y1="20" x2="10" y2="0" stroke="silver" stroke-width="2" />
</pattern>

    <g id="target" stroke-width="0.5" fill="none">
      <circle r="100" stroke="black" fill="black" stroke-width="0.5px" />
      <circle r="80" stroke="white" stroke-width="0.5px" />
      <circle r="60" stroke="white" stroke-width="0.5px" />
      <circle r="40" stroke="white" stroke-width="0.5px" />
      <circle r="20" stroke="black" fill="yellow" />
      <circle r="10" stroke="black" fill="none" stroke-width="0.5px" />
      <line x1="-4" y1="0" x2="4" y2="0" stroke="black" stroke-width="0.5px" />
      <line x1="0" y1="-4" x2="0" y2="4" stroke="black" stroke-width="0.5px" />
    </g>

    <g id="sight" stroke="black" stroke-linecap="round" stroke-linejoin="round">
		<line x1="420" y1="215" x2="395" y2="215" stroke="red" stroke-width="3"/>
		<line x1="420" y1="215" x2="395" y2="215" stroke="red" stroke-width="3" transform="rotate(-120,420,215)"/>
		<line x1="420" y1="215" x2="395" y2="215" stroke="red" stroke-width="3" transform="rotate(120,420,215)"/>
		<circle cx="420" cy="215" r="10" fill="red"/>
		<rect x="430" y="210" width="105" height="10" fill="url(#screwPattern)" stroke="silver"/>
		<rect x="470" y="200" width="35" height="30" fill="#303fa1" rx="5"/>
		<rect x="505" y="200" width="20" height="30" fill="#303fa1" rx="5"/>	
		<path d="M440,80 v150 a10,10 0 0 1 -10,10 h-30 a10,10 0 0 0 0,20 h50 a10,10 0 0 0 10,-10 v-170 c-7,-5 -14,5 -20,0"  fill="#303fa1"/>
		

    </g>

  </defs>

<g transform="translate(-50,-30)">
  <g transform="translate(255,245)" stroke-width="0.5" fill="none">
    <g transform="scale(0.7)">  <!-- direktna končna transformacija -->
      <use xlink:href="#target" />
    </g>
  </g>
  
    <g transform="translate(295,470)" stroke-width="0.5" fill="none">
    <g transform="scale(0.35)">  <!-- direktna končna transformacija -->
      <use xlink:href="#target" />
    </g>
  </g>


<g transform="translate(-200,50)" stroke="black">
  <use xlink:href="#sight" id="Sign" />
  <text x="550" y="100" font-size="25">15m</text>
</g>
		

<g transform="translate(-200,300)" stroke="black">
  <use xlink:href="#sight" id="Sign" />
  <text x="550" y="100" font-size="25">30m</text>
</g>
</g>


</svg>
