<svg xmlns="http://www.w3.org/2000/svg" xmlns:xlink="http://www.w3.org/1999/xlink" height="600" width="800" viewBox="0 0 800 600"
onclick="OnClick()">
	<metadata>Author: Simon Pavlin, 2021</metadata>
	<title>Shifted lines Illusion</title>
	<defs>
		<g id="line1" stroke-width="0">
			<rect x="0" y="0" height="5" width="100" fill="black"/>
			<rect x="0" y="5" height="5" width="100" fill="white"/>
		</g>
		<g id="line2" stroke-width="0">
			<rect x="0" y="0" height="5" width="100" fill="white"/>
			<rect x="0" y="5" height="5" width="100" fill="black"/>
		</g>
	</defs>
	<rect id="BackDrop" x="0" y="0" width="800" height="600" pointer-events="all" fill="white" />
	
	<rect x="100" y="0" height="600" width="100" fill="black" class="hide"/>
	<rect x="300" y="0" height="600" width="100" fill="black" class="hide"/>
	<rect x="500" y="0" height="600" width="100" fill="black" class="hide"/>
	<rect x="700" y="0" height="600" width="100" fill="black" class="hide"/>
	
	<use xlink:href="#line1" transform="translate(-50,100)" />
	<use xlink:href="#line2" transform="translate(50,100)" />
	<use xlink:href="#line1" transform="translate(150,100)" />
	<use xlink:href="#line2" transform="translate(250,100)" />
	<use xlink:href="#line1" transform="translate(350,100)" />
	<use xlink:href="#line2" transform="translate(450,100)" />
	<use xlink:href="#line1" transform="translate(550,100)" />
	<use xlink:href="#line2" transform="translate(650,100)" />
	<use xlink:href="#line1" transform="translate(750,100)" />
	
	<use xlink:href="#line2" transform="translate(-50,200)" />
	<use xlink:href="#line1" transform="translate(50,200)" />
	<use xlink:href="#line2" transform="translate(150,200)" />
	<use xlink:href="#line1" transform="translate(250,200)" />
	<use xlink:href="#line2" transform="translate(350,200)" />
	<use xlink:href="#line1" transform="translate(450,200)" />
	<use xlink:href="#line2" transform="translate(550,200)" />
	<use xlink:href="#line1" transform="translate(650,200)" />
	<use xlink:href="#line2" transform="translate(750,200)" />
	
	<use xlink:href="#line1" transform="translate(-50,300)" />
	<use xlink:href="#line2" transform="translate(50,300)" />
	<use xlink:href="#line1" transform="translate(150,300)" />
	<use xlink:href="#line2" transform="translate(250,300)" />
	<use xlink:href="#line1" transform="translate(350,300)" />
	<use xlink:href="#line2" transform="translate(450,300)" />
	<use xlink:href="#line1" transform="translate(550,300)" />
	<use xlink:href="#line2" transform="translate(650,300)" />
	<use xlink:href="#line1" transform="translate(750,300)" />
	
	<use xlink:href="#line2" transform="translate(-50,400)" />
	<use xlink:href="#line1" transform="translate(50,400)" />
	<use xlink:href="#line2" transform="translate(150,400)" />
	<use xlink:href="#line1" transform="translate(250,400)" />
	<use xlink:href="#line2" transform="translate(350,400)" />
	<use xlink:href="#line1" transform="translate(450,400)" />
	<use xlink:href="#line2" transform="translate(550,400)" />
	<use xlink:href="#line1" transform="translate(650,400)" />
	<use xlink:href="#line2" transform="translate(750,400)" />
	
	<use xlink:href="#line1" transform="translate(-50,500)" />
	<use xlink:href="#line2" transform="translate(50,500)" />
	<use xlink:href="#line1" transform="translate(150,500)" />
	<use xlink:href="#line2" transform="translate(250,500)" />
	<use xlink:href="#line1" transform="translate(350,500)" />
	<use xlink:href="#line2" transform="translate(450,500)" />
	<use xlink:href="#line1" transform="translate(550,500)" />
	<use xlink:href="#line2" transform="translate(650,500)" />
	<use xlink:href="#line1" transform="translate(750,500)" />
	
	<script type="text/ecmascript"><![CDATA[
var hide = true;

function OnClick() {
	var elements = document.getElementsByClassName('hide');
	for(i=0; i<elements.length; i++) {
		if(hide) {
			elements[i].setAttribute('opacity', 0);
		} else {
			elements[i].setAttribute('opacity', 1);
		}
	}
	hide = !hide;
}

    ]]> </script>

</svg>
