<svg xmlns='http://www.w3.org/2000/svg' xmlns:xlink="http://www.w3.org/1999/xlink" version='1.1'
 width='700' viewBox="0 0 800 600"
	onload="Init()"
	onclick="OnClick()"
	style="cursor:pointer;">
	<metadata>Author: Simon Pavlin, 2021</metadata>
	<title>Ebbinghaus illusion</title>

	<rect id="BackDrop" x="0" y="0" width="800" height="600" pointer-events="all" fill="#8e78b9" />

	<!-- center of rotation -->
	<circle cx="400" cy="300" r="72" fill="none" stroke="black" stroke-width="2" opacity="0" />
	<circle cx="400" cy="300" r="118" fill="none" stroke="black" stroke-width="2" opacity="0" />
	<circle cx="400" cy="300" r="170" fill="none" stroke="black" stroke-width="2" opacity="0" />
	<circle cx="400" cy="300" r="225" fill="none" stroke="black" stroke-width="2" opacity="0" />
<rect x="320" y="275" width="20" height="20" stroke="#23143a" fill="none" transform="rotate(0,400,300)"/><rect x="320" y="275" width="20" height="20" stroke="#ffffff" fill="none" transform="rotate(-20,400,300)"/><rect x="320" y="275" width="20" height="20" stroke="#23143a" fill="none" transform="rotate(-40,400,300)"/><rect x="320" y="275" width="20" height="20" stroke="#ffffff" fill="none" transform="rotate(-60,400,300)"/><rect x="320" y="275" width="20" height="20" stroke="#23143a" fill="none" transform="rotate(-80,400,300)"/><rect x="320" y="275" width="20" height="20" stroke="#ffffff" fill="none" transform="rotate(-100,400,300)"/><rect x="320" y="275" width="20" height="20" stroke="#23143a" fill="none" transform="rotate(-120,400,300)"/><rect x="320" y="275" width="20" height="20" stroke="#ffffff" fill="none" transform="rotate(-140,400,300)"/><rect x="320" y="275" width="20" height="20" stroke="#23143a" fill="none" transform="rotate(-160,400,300)"/><rect x="320" y="275" width="20" height="20" stroke="#ffffff" fill="none" transform="rotate(-180,400,300)"/><rect x="320" y="275" width="20" height="20" stroke="#23143a" fill="none" transform="rotate(-200,400,300)"/><rect x="320" y="275" width="20" height="20" stroke="#ffffff" fill="none" transform="rotate(-220,400,300)"/><rect x="320" y="275" width="20" height="20" stroke="#23143a" fill="none" transform="rotate(-240,400,300)"/><rect x="320" y="275" width="20" height="20" stroke="#ffffff" fill="none" transform="rotate(-260,400,300)"/><rect x="320" y="275" width="20" height="20" stroke="#23143a" fill="none" transform="rotate(-280,400,300)"/><rect x="320" y="275" width="20" height="20" stroke="#ffffff" fill="none" transform="rotate(-300,400,300)"/><rect x="320" y="275" width="20" height="20" stroke="#23143a" fill="none" transform="rotate(-320,400,300)"/><rect x="320" y="275" width="20" height="20" stroke="#ffffff" fill="none" transform="rotate(-340,400,300)"/><rect x="275" y="265" width="20" height="20" stroke="#23143a" fill="none" transform="rotate(0,400,300)"/><rect x="275" y="265" width="20" height="20" stroke="#ffffff" fill="none" transform="rotate(11.25,400,300)"/><rect x="275" y="265" width="20" height="20" stroke="#23143a" fill="none" transform="rotate(22.5,400,300)"/><rect x="275" y="265" width="20" height="20" stroke="#ffffff" fill="none" transform="rotate(33.75,400,300)"/><rect x="275" y="265" width="20" height="20" stroke="#23143a" fill="none" transform="rotate(45,400,300)"/><rect x="275" y="265" width="20" height="20" stroke="#ffffff" fill="none" transform="rotate(56.25,400,300)"/><rect x="275" y="265" width="20" height="20" stroke="#23143a" fill="none" transform="rotate(67.5,400,300)"/><rect x="275" y="265" width="20" height="20" stroke="#ffffff" fill="none" transform="rotate(78.75,400,300)"/><rect x="275" y="265" width="20" height="20" stroke="#23143a" fill="none" transform="rotate(90,400,300)"/><rect x="275" y="265" width="20" height="20" stroke="#ffffff" fill="none" transform="rotate(101.25,400,300)"/><rect x="275" y="265" width="20" height="20" stroke="#23143a" fill="none" transform="rotate(112.5,400,300)"/><rect x="275" y="265" width="20" height="20" stroke="#ffffff" fill="none" transform="rotate(123.75,400,300)"/><rect x="275" y="265" width="20" height="20" stroke="#23143a" fill="none" transform="rotate(135,400,300)"/><rect x="275" y="265" width="20" height="20" stroke="#ffffff" fill="none" transform="rotate(146.25,400,300)"/><rect x="275" y="265" width="20" height="20" stroke="#23143a" fill="none" transform="rotate(157.5,400,300)"/><rect x="275" y="265" width="20" height="20" stroke="#ffffff" fill="none" transform="rotate(168.75,400,300)"/><rect x="275" y="265" width="20" height="20" stroke="#23143a" fill="none" transform="rotate(180,400,300)"/><rect x="275" y="265" width="20" height="20" stroke="#ffffff" fill="none" transform="rotate(191.25,400,300)"/><rect x="275" y="265" width="20" height="20" stroke="#23143a" fill="none" transform="rotate(202.5,400,300)"/><rect x="275" y="265" width="20" height="20" stroke="#ffffff" fill="none" transform="rotate(213.75,400,300)"/><rect x="275" y="265" width="20" height="20" stroke="#23143a" fill="none" transform="rotate(225,400,300)"/><rect x="275" y="265" width="20" height="20" stroke="#ffffff" fill="none" transform="rotate(236.25,400,300)"/><rect x="275" y="265" width="20" height="20" stroke="#23143a" fill="none" transform="rotate(247.5,400,300)"/><rect x="275" y="265" width="20" height="20" stroke="#ffffff" fill="none" transform="rotate(258.75,400,300)"/><rect x="275" y="265" width="20" height="20" stroke="#23143a" fill="none" transform="rotate(270,400,300)"/><rect x="275" y="265" width="20" height="20" stroke="#ffffff" fill="none" transform="rotate(281.25,400,300)"/><rect x="275" y="265" width="20" height="20" stroke="#23143a" fill="none" transform="rotate(292.5,400,300)"/><rect x="275" y="265" width="20" height="20" stroke="#ffffff" fill="none" transform="rotate(303.75,400,300)"/><rect x="275" y="265" width="20" height="20" stroke="#23143a" fill="none" transform="rotate(315,400,300)"/><rect x="275" y="265" width="20" height="20" stroke="#ffffff" fill="none" transform="rotate(326.25,400,300)"/><rect x="275" y="265" width="20" height="20" stroke="#23143a" fill="none" transform="rotate(337.5,400,300)"/><rect x="275" y="265" width="20" height="20" stroke="#ffffff" fill="none" transform="rotate(348.75,400,300)"/><rect x="230" y="230" width="20" height="20" stroke="#23143a" fill="none" transform="rotate(0,400,300)"/><rect x="230" y="230" width="20" height="20" stroke="#ffffff" fill="none" transform="rotate(8.1818,400,300)"/><rect x="230" y="230" width="20" height="20" stroke="#23143a" fill="none" transform="rotate(16.3636,400,300)"/><rect x="230" y="230" width="20" height="20" stroke="#ffffff" fill="none" transform="rotate(24.5454,400,300)"/><rect x="230" y="230" width="20" height="20" stroke="#23143a" fill="none" transform="rotate(32.7272,400,300)"/><rect x="230" y="230" width="20" height="20" stroke="#ffffff" fill="none" transform="rotate(40.909000000000006,400,300)"/><rect x="230" y="230" width="20" height="20" stroke="#23143a" fill="none" transform="rotate(49.0908,400,300)"/><rect x="230" y="230" width="20" height="20" stroke="#ffffff" fill="none" transform="rotate(57.272600000000004,400,300)"/><rect x="230" y="230" width="20" height="20" stroke="#23143a" fill="none" transform="rotate(65.4544,400,300)"/><rect x="230" y="230" width="20" height="20" stroke="#ffffff" fill="none" transform="rotate(73.6362,400,300)"/><rect x="230" y="230" width="20" height="20" stroke="#23143a" fill="none" transform="rotate(81.81800000000001,400,300)"/><rect x="230" y="230" width="20" height="20" stroke="#ffffff" fill="none" transform="rotate(89.99980000000001,400,300)"/><rect x="230" y="230" width="20" height="20" stroke="#23143a" fill="none" transform="rotate(98.1816,400,300)"/><rect x="230" y="230" width="20" height="20" stroke="#ffffff" fill="none" transform="rotate(106.36340000000001,400,300)"/><rect x="230" y="230" width="20" height="20" stroke="#23143a" fill="none" transform="rotate(114.54520000000001,400,300)"/><rect x="230" y="230" width="20" height="20" stroke="#ffffff" fill="none" transform="rotate(122.72700000000002,400,300)"/><rect x="230" y="230" width="20" height="20" stroke="#23143a" fill="none" transform="rotate(130.9088,400,300)"/><rect x="230" y="230" width="20" height="20" stroke="#ffffff" fill="none" transform="rotate(139.09060000000002,400,300)"/><rect x="230" y="230" width="20" height="20" stroke="#23143a" fill="none" transform="rotate(147.2724,400,300)"/><rect x="230" y="230" width="20" height="20" stroke="#ffffff" fill="none" transform="rotate(155.45420000000001,400,300)"/><rect x="230" y="230" width="20" height="20" stroke="#23143a" fill="none" transform="rotate(163.63600000000002,400,300)"/><rect x="230" y="230" width="20" height="20" stroke="#ffffff" fill="none" transform="rotate(171.8178,400,300)"/><rect x="230" y="230" width="20" height="20" stroke="#23143a" fill="none" transform="rotate(179.99960000000002,400,300)"/><rect x="230" y="230" width="20" height="20" stroke="#ffffff" fill="none" transform="rotate(188.18140000000002,400,300)"/><rect x="230" y="230" width="20" height="20" stroke="#23143a" fill="none" transform="rotate(196.3632,400,300)"/><rect x="230" y="230" width="20" height="20" stroke="#ffffff" fill="none" transform="rotate(204.54500000000002,400,300)"/><rect x="230" y="230" width="20" height="20" stroke="#23143a" fill="none" transform="rotate(212.72680000000003,400,300)"/><rect x="230" y="230" width="20" height="20" stroke="#ffffff" fill="none" transform="rotate(220.90860000000004,400,300)"/><rect x="230" y="230" width="20" height="20" stroke="#23143a" fill="none" transform="rotate(229.09040000000002,400,300)"/><rect x="230" y="230" width="20" height="20" stroke="#ffffff" fill="none" transform="rotate(237.27220000000003,400,300)"/><rect x="230" y="230" width="20" height="20" stroke="#23143a" fill="none" transform="rotate(245.45400000000004,400,300)"/><rect x="230" y="230" width="20" height="20" stroke="#ffffff" fill="none" transform="rotate(253.63580000000002,400,300)"/><rect x="230" y="230" width="20" height="20" stroke="#23143a" fill="none" transform="rotate(261.8176,400,300)"/><rect x="230" y="230" width="20" height="20" stroke="#ffffff" fill="none" transform="rotate(269.99940000000004,400,300)"/><rect x="230" y="230" width="20" height="20" stroke="#23143a" fill="none" transform="rotate(278.18120000000005,400,300)"/><rect x="230" y="230" width="20" height="20" stroke="#ffffff" fill="none" transform="rotate(286.36300000000006,400,300)"/><rect x="230" y="230" width="20" height="20" stroke="#23143a" fill="none" transform="rotate(294.5448,400,300)"/><rect x="230" y="230" width="20" height="20" stroke="#ffffff" fill="none" transform="rotate(302.7266,400,300)"/><rect x="230" y="230" width="20" height="20" stroke="#23143a" fill="none" transform="rotate(310.90840000000003,400,300)"/><rect x="230" y="230" width="20" height="20" stroke="#ffffff" fill="none" transform="rotate(319.09020000000004,400,300)"/><rect x="230" y="230" width="20" height="20" stroke="#23143a" fill="none" transform="rotate(327.27200000000005,400,300)"/><rect x="230" y="230" width="20" height="20" stroke="#ffffff" fill="none" transform="rotate(335.45380000000006,400,300)"/><rect x="230" y="230" width="20" height="20" stroke="#23143a" fill="none" transform="rotate(343.6356,400,300)"/><rect x="230" y="230" width="20" height="20" stroke="#ffffff" fill="none" transform="rotate(351.8174,400,300)"/><rect x="190" y="190" width="20" height="20" stroke="#23143a" fill="none" transform="rotate(0,400,300)"/><rect x="190" y="190" width="20" height="20" stroke="#ffffff" fill="none" transform="rotate(6.207,400,300)"/><rect x="190" y="190" width="20" height="20" stroke="#23143a" fill="none" transform="rotate(12.414,400,300)"/><rect x="190" y="190" width="20" height="20" stroke="#ffffff" fill="none" transform="rotate(18.621,400,300)"/><rect x="190" y="190" width="20" height="20" stroke="#23143a" fill="none" transform="rotate(24.828,400,300)"/><rect x="190" y="190" width="20" height="20" stroke="#ffffff" fill="none" transform="rotate(31.035,400,300)"/><rect x="190" y="190" width="20" height="20" stroke="#23143a" fill="none" transform="rotate(37.242,400,300)"/><rect x="190" y="190" width="20" height="20" stroke="#ffffff" fill="none" transform="rotate(43.449,400,300)"/><rect x="190" y="190" width="20" height="20" stroke="#23143a" fill="none" transform="rotate(49.656,400,300)"/><rect x="190" y="190" width="20" height="20" stroke="#ffffff" fill="none" transform="rotate(55.863,400,300)"/><rect x="190" y="190" width="20" height="20" stroke="#23143a" fill="none" transform="rotate(62.07,400,300)"/><rect x="190" y="190" width="20" height="20" stroke="#ffffff" fill="none" transform="rotate(68.277,400,300)"/><rect x="190" y="190" width="20" height="20" stroke="#23143a" fill="none" transform="rotate(74.484,400,300)"/><rect x="190" y="190" width="20" height="20" stroke="#ffffff" fill="none" transform="rotate(80.691,400,300)"/><rect x="190" y="190" width="20" height="20" stroke="#23143a" fill="none" transform="rotate(86.898,400,300)"/><rect x="190" y="190" width="20" height="20" stroke="#ffffff" fill="none" transform="rotate(93.105,400,300)"/><rect x="190" y="190" width="20" height="20" stroke="#23143a" fill="none" transform="rotate(99.312,400,300)"/><rect x="190" y="190" width="20" height="20" stroke="#ffffff" fill="none" transform="rotate(105.51899999999999,400,300)"/><rect x="190" y="190" width="20" height="20" stroke="#23143a" fill="none" transform="rotate(111.726,400,300)"/><rect x="190" y="190" width="20" height="20" stroke="#ffffff" fill="none" transform="rotate(117.93299999999999,400,300)"/><rect x="190" y="190" width="20" height="20" stroke="#23143a" fill="none" transform="rotate(124.14,400,300)"/><rect x="190" y="190" width="20" height="20" stroke="#ffffff" fill="none" transform="rotate(130.347,400,300)"/><rect x="190" y="190" width="20" height="20" stroke="#23143a" fill="none" transform="rotate(136.554,400,300)"/><rect x="190" y="190" width="20" height="20" stroke="#ffffff" fill="none" transform="rotate(142.761,400,300)"/><rect x="190" y="190" width="20" height="20" stroke="#23143a" fill="none" transform="rotate(148.968,400,300)"/><rect x="190" y="190" width="20" height="20" stroke="#ffffff" fill="none" transform="rotate(155.17499999999998,400,300)"/><rect x="190" y="190" width="20" height="20" stroke="#23143a" fill="none" transform="rotate(161.382,400,300)"/><rect x="190" y="190" width="20" height="20" stroke="#ffffff" fill="none" transform="rotate(167.589,400,300)"/><rect x="190" y="190" width="20" height="20" stroke="#23143a" fill="none" transform="rotate(173.796,400,300)"/><rect x="190" y="190" width="20" height="20" stroke="#ffffff" fill="none" transform="rotate(180.003,400,300)"/><rect x="190" y="190" width="20" height="20" stroke="#23143a" fill="none" transform="rotate(186.21,400,300)"/><rect x="190" y="190" width="20" height="20" stroke="#ffffff" fill="none" transform="rotate(192.417,400,300)"/><rect x="190" y="190" width="20" height="20" stroke="#23143a" fill="none" transform="rotate(198.624,400,300)"/><rect x="190" y="190" width="20" height="20" stroke="#ffffff" fill="none" transform="rotate(204.831,400,300)"/><rect x="190" y="190" width="20" height="20" stroke="#23143a" fill="none" transform="rotate(211.03799999999998,400,300)"/><rect x="190" y="190" width="20" height="20" stroke="#ffffff" fill="none" transform="rotate(217.245,400,300)"/><rect x="190" y="190" width="20" height="20" stroke="#23143a" fill="none" transform="rotate(223.452,400,300)"/><rect x="190" y="190" width="20" height="20" stroke="#ffffff" fill="none" transform="rotate(229.659,400,300)"/><rect x="190" y="190" width="20" height="20" stroke="#23143a" fill="none" transform="rotate(235.86599999999999,400,300)"/><rect x="190" y="190" width="20" height="20" stroke="#ffffff" fill="none" transform="rotate(242.073,400,300)"/><rect x="190" y="190" width="20" height="20" stroke="#23143a" fill="none" transform="rotate(248.28,400,300)"/><rect x="190" y="190" width="20" height="20" stroke="#ffffff" fill="none" transform="rotate(254.487,400,300)"/><rect x="190" y="190" width="20" height="20" stroke="#23143a" fill="none" transform="rotate(260.694,400,300)"/><rect x="190" y="190" width="20" height="20" stroke="#ffffff" fill="none" transform="rotate(266.901,400,300)"/><rect x="190" y="190" width="20" height="20" stroke="#23143a" fill="none" transform="rotate(273.108,400,300)"/><rect x="190" y="190" width="20" height="20" stroke="#ffffff" fill="none" transform="rotate(279.315,400,300)"/><rect x="190" y="190" width="20" height="20" stroke="#23143a" fill="none" transform="rotate(285.522,400,300)"/><rect x="190" y="190" width="20" height="20" stroke="#ffffff" fill="none" transform="rotate(291.729,400,300)"/><rect x="190" y="190" width="20" height="20" stroke="#23143a" fill="none" transform="rotate(297.936,400,300)"/><rect x="190" y="190" width="20" height="20" stroke="#ffffff" fill="none" transform="rotate(304.143,400,300)"/><rect x="190" y="190" width="20" height="20" stroke="#23143a" fill="none" transform="rotate(310.34999999999997,400,300)"/><rect x="190" y="190" width="20" height="20" stroke="#ffffff" fill="none" transform="rotate(316.557,400,300)"/><rect x="190" y="190" width="20" height="20" stroke="#23143a" fill="none" transform="rotate(322.764,400,300)"/><rect x="190" y="190" width="20" height="20" stroke="#ffffff" fill="none" transform="rotate(328.971,400,300)"/><rect x="190" y="190" width="20" height="20" stroke="#23143a" fill="none" transform="rotate(335.178,400,300)"/><rect x="190" y="190" width="20" height="20" stroke="#ffffff" fill="none" transform="rotate(341.385,400,300)"/><rect x="190" y="190" width="20" height="20" stroke="#23143a" fill="none" transform="rotate(347.592,400,300)"/><rect x="190" y="190" width="20" height="20" stroke="#ffffff" fill="none" transform="rotate(353.799,400,300)"/>
 <script><![CDATA[

var show = true;
function OnClick() {
	var elements = document.getElementsByTagName('circle');
	for (var i = 0; i < elements.length; i++) {
		if(show) {
		elements[i].setAttribute('opacity', 1);
	} else {
		elements[i].setAttribute('opacity', 0);
	}
	
	}
	show = !show;
}
   ]]></script>
</svg>

