<?xml version="1.0" encoding="UTF-8" standalone="no"?>
<svg width="500px" height="900px" xmlns="http://www.w3.org/2000/svg" xmlns:xlink="http://www.w3.org/1999/xlink" 
style="display:block; margin:auto;"  viewBox="0 0 500 900">
	<g transform="translate(-30,170)" stroke-width="2" stroke="blue" fill="blue" stroke-linecap="round" stroke-linejoin="round">
		<!-- levo -->
		<path d="M302,468 C275,550 183,539 199,698 A1,1 0 0 0 206,698
		C196,552 289,556 314,494 z" />
		<!-- desno -->
		<path d="M289,377 C264,415 378,541 382,698 A1,1 0 0 0 389,698
		C406,554 322,464 357,406 A1,1 0 0 0 350,404
		Q326,435 354,510 A1,1 0 0 1 345,512 C324,458 290,407 308,381z" />
		<!-- leva roka -->
		<path d="M225,150 Q275,309 358,275 Q351,297 338,299 Q335,325 352,363
		A1,1 0 0 1 346,365 Q324,336 317,301 Q251,278 219,151
		A1,1 0 0 1 225,150"/>
		<path d="" />
		<!-- desna roka -->
		<path d="M255,175 Q347,202 384,272 Q384,313 362,367 A1,1 0 0 0 368,369
		Q404,308 406,263 Q367,199 257,169 A1,1 0 0 0 255,175" />
		<!-- glava -->
		<path d="M300,205 C293,298 382,274 342,230 C352,248 316,279 306,207
		A1,1 0 0 0 300,205" />
		<!-- kikla -->
		<path d="M227,353 C433,372 495,458 357,436 Q357,425 362,416
		C462,441 364,369 228,359 A1,1 0 0 1 227,353" />
		<!-- lok -->
		<!--path d="M407,1 Q116,57 198,362 A1,1 0 0 0 204,359 Q136,82 407,8
		A1,1 0 0 0 407,1" /-->
		 <path d="M445,9 Q159,82 127,374 A1,1 0 0 1 121,374
		 Q129,60 446,4 A1,1 0 0 1 445,9" />
		<!-- puščica -->
		<path d="M194,116 L94,28 A1,1 0 0 1 101,25
		L199,111 A1,1 0 0 1 194,116" />
	</g>
</svg>
