<?xml version="1.0" encoding="UTF-8" standalone="no"?>
<svg xmlns="http://www.w3.org/2000/svg" xmlns:xlink="http://www.w3.org/1999/xlink"
     viewBox="150 150 500 390"
	 style="background:#f8f8f8;">
<metadata>Author: Simon Pavlin, 2026</metadata>
  <title>Archer</title>
  <defs>
	<g id="field" stroke-width="0.5">
		<circle r="50" stroke="white" fill="black"/>
		<circle r="40" stroke="white" />
		<circle r="30" stroke="white" />
		<circle r="20" stroke="white" />
		<circle r="10" stroke="black" fill="yellow" />
		<circle r="5"  stroke="black" fill="none" />
		<line x1="-2" y1="0" x2="2" y2="0" stroke="black" />
		<line x1="0" y1="-2" x2="0" y2="2" stroke="black" />
	</g>
	<marker id="arrow" markerWidth="10" markerHeight="10" refX="5" refY="3" orient="auto">
		<path d="M0,0 L0,6 L9,3 z" fill="red"/>
	</marker>
</defs>

  <g id="archer" stroke="#303fa1" stroke-width="20px" fill="none"
     stroke-linecap="round" stroke-linejoin="round">
	 <!-- TLA -->
    <line x1="210" y1="460" x2="600" y2="460" stroke="silver" stroke-width="10"/>
	
	<!-- tarče 60cm -->
	<use xlink:href="#field" transform="scale(0.8) translate(645,319)"/>
	<use xlink:href="#field" transform="scale(0.8) translate(645,419)"/>
	<use xlink:href="#field" transform="scale(0.8) translate(645,519)"/>
	
	<!-- tarče 80cm -->
	<use xlink:href="#field" transform="scale(1.1) translate(255,263)"/>
	<use xlink:href="#field" transform="scale(1.1) translate(255,363)"/>
	
<!-- telo -->
<circle cx="400" cy="210" r="15" stroke-width="15px" />
<line x1="400" y1="250" x2="400" y2="340" />
<line x1="360" y1="330" x2="400" y2="250" />
<line x1="400" y1="250" x2="440" y2="330" />

<!-- noge -->
<line x1="400" y1="340" x2="430" y2="445" />
<line x1="400" y1="340" x2="370" y2="445" />

  </g>
  <text x="250" y="500" font-size="30" font-weight="bold">80cm</text>
  <text x="480" y="500" font-size="30" font-weight="bold">60cm</text>

</svg>
