<?xml version="1.0" encoding="UTF-8" standalone="no"?>
<!DOCTYPE svg PUBLIC "-//W3C//DTD SVG 20001102//EN" "http://www.w3.org/TR/2000/CR-SVG-20001102/DTD/svg-20001102.dtd">
<svg id="dragdrop-svg" width="600" height="400"
     xmlns="http://www.w3.org/2000/svg"
	 xmlns:xlink="http://www.w3.org/1999/xlink">

     <defs>
		<mask id="mask" x="0" y="0" width="30" height="30">
			<rect width="99" height="99" fill="#fff"/>
			<circle cx="50" cy="50" r="40" />
		</mask>
		<g id="target" stroke-width="0.5" fill="none">
			<circle r="100" stroke="black" fill="black" stroke-width="0.5px" />
			<circle r="80" stroke="white" stroke-width="0.5px" />
			<circle r="60" stroke="white" stroke-width="0.5px" />
			<circle r="40" stroke="white" stroke-width="0.5px" />
			<circle r="20" stroke="black" fill="yellow" />
			<circle r="10" stroke="black" fill="none" stroke-width="0.5px" />
			<line x1="-4" y1="0" x2="4" y2="0" stroke="black" stroke-width="0.5px" />
			<line x1="0" y1="-4" x2="0" y2="4" stroke="black" stroke-width="0.5px" />
		</g>

		<g id="sight" class="merek">
			<rect x="0" y="0" width="99" height="99" mask="url(#mask)" />
			<circle r="40" cx="50" cy="50" stroke="red" stroke-width="2" fill="none" />
			<circle r="8" cx="50" cy="50" stroke="red" fill="red" />
			<rect x="0" y="0" width="99" height="99" fill="none" stroke="red" stroke-width="1px" />
		</g>
	</defs>

  <!-- Ozadje -->
	<rect width="100%" height="100%" fill="#f8f8f8"/>

	<g transform="translate(200,120)" stroke-width="0.5" fill="none">
		<g id="Target1" transform="scale(0.75)">
			<use xlink:href="#target" />
			<rect x="80" y="80" width="40" height="40" rx="5px" ry="5px" fill="red" stroke="black" stroke-width="1px"/>
			<text id="Number1" x="100" y="102" dominant-baseline="middle" text-anchor="middle" fill="black" font-size="28px">1</text>
		</g>
	</g>

	<g transform="translate(200,370)" stroke-width="0.5" fill="none">
		<g id="Target2" transform="scale(1)">
			<use xlink:href="#target" />
			<rect x="80" y="80" width="40" height="40" rx="5px" ry="5px" fill="red" stroke="black" stroke-width="1px"/>
			<text id="Number2" x="100" y="102" dominant-baseline="middle" text-anchor="middle" fill="black" font-size="28px">2</text>
		</g>
	</g>

	<g transform="translate(200,620)" stroke-width="0.5" fill="none">
		<g id="Target3" transform="scale(1.1)">
			<use xlink:href="#target" />
			<rect x="80" y="80" width="40" height="40" rx="5px" ry="5px" fill="red" stroke="black" stroke-width="1px"/>
			<text id="Number3" x="100" y="102" dominant-baseline="middle" text-anchor="middle" fill="black" font-size="28px">3</text>
		</g>
	</g>

	<text id="razdalja1" x="600" y="130" font-family="Comic Sans MS" font-size="35px">first target: 25m</text>
	<text id="razdalja2" x="600" y="380" font-family="Comic Sans MS" font-size="35px">second target: 20m</text>
	<text id="razdalja3" x="600" y="630" font-family="Comic Sans MS" font-size="35px">third target: 18m</text>

	<!-- Povleci me element -->
	<use xlink:href="#sight" id="dragme" transform="translate(500,200)" class="merek" cursor="grab"/>


</svg>
